<svg preserveAspectRatio="none" width="100%" height="100%" overflow="visible" style="display: block;" viewBox="0 0 16 16" fill="none" xmlns="http://www.w3.org/2000/svg">
<g id="Frame">
<path id="Vector" d="M3 4C3.55228 4 4 3.55228 4 3C4 2.44771 3.55228 2 3 2C2.44771 2 2 2.44771 2 3C2 3.55228 2.44771 4 3 4Z" fill="var(--fill-0, #7E8084)"/>
<path id="Vector_2" d="M8 4C8.55228 4 9 3.55228 9 3C9 2.44771 8.55228 2 8 2C7.44772 2 7 2.44771 7 3C7 3.55228 7.44772 4 8 4Z" fill="var(--fill-0, #7E8084)"/>
<path id="Vector_3" d="M13 4C13.5523 4 14 3.55228 14 3C14 2.44771 13.5523 2 13 2C12.4477 2 12 2.44771 12 3C12 3.55228 12.4477 4 13 4Z" fill="var(--fill-0, #7E8084)"/>
<path id="Vector_4" d="M3.33333 9.33333C4.0697 9.33333 4.66667 8.73637 4.66667 8C4.66667 7.26363 4.0697 6.66667 3.33333 6.66667C2.59695 6.66667 2 7.26363 2 8C2 8.73637 2.59695 9.33333 3.33333 9.33333Z" fill="var(--fill-0, #7E8084)"/>
<path id="Vector_5" d="M8 9.33333C8.73637 9.33333 9.33333 8.73637 9.33333 8C9.33333 7.26363 8.73637 6.66667 8 6.66667C7.26363 6.66667 6.66667 7.26363 6.66667 8C6.66667 8.73637 7.26363 9.33333 8 9.33333Z" fill="var(--fill-0, #7E8084)"/>
<path id="Vector_6" d="M12.6667 9.33333C13.403 9.33333 14 8.73637 14 8C14 7.26363 13.403 6.66667 12.6667 6.66667C11.9303 6.66667 11.3333 7.26363 11.3333 8C11.3333 8.73637 11.9303 9.33333 12.6667 9.33333Z" fill="var(--fill-0, #7E8084)"/>
<path id="Vector_7" d="M3 14C3.55228 14 4 13.5523 4 13C4 12.4477 3.55228 12 3 12C2.44771 12 2 12.4477 2 13C2 13.5523 2.44771 14 3 14Z" fill="var(--fill-0, #7E8084)"/>
<path id="Vector_8" d="M8 14C8.55228 14 9 13.5523 9 13C9 12.4477 8.55228 12 8 12C7.44772 12 7 12.4477 7 13C7 13.5523 7.44772 14 8 14Z" fill="var(--fill-0, #7E8084)"/>
<path id="Vector_9" d="M13 14C13.5523 14 14 13.5523 14 13C14 12.4477 13.5523 12 13 12C12.4477 12 12 12.4477 12 13C12 13.5523 12.4477 14 13 14Z" fill="var(--fill-0, #7E8084)"/>
</g>
</svg>
