<svg width="16" height="16" viewBox="0 0 16 16" fill="none" xmlns="http://www.w3.org/2000/svg">
<path d="M8 1.16675C8.80634 1.16675 9.4616 1.80345 9.49609 2.60132L13.5791 4.89819C13.7362 4.98684 13.834 5.15334 13.834 5.33374V9.92065C14.4159 10.127 14.833 10.6811 14.833 11.3337C14.833 12.1622 14.1614 12.8337 13.333 12.8337C12.955 12.8336 12.6105 12.6926 12.3467 12.4617L10.9121 13.2693L8.24512 14.7693C8.09303 14.8548 7.90699 14.8547 7.75488 14.7693L3.65234 12.4617C3.38857 12.6923 3.04478 12.8336 2.66699 12.8337C1.83857 12.8337 1.16699 12.1622 1.16699 11.3337C1.16699 10.6808 1.58465 10.1267 2.16699 9.92065V5.33374C2.16699 5.15314 2.26449 4.98677 2.42188 4.89819L6.50293 2.60229C6.53691 1.80395 7.19331 1.16675 8 1.16675ZM8 10.6667L6.33984 9.69897C6.31222 9.7247 6.2822 9.74877 6.24805 9.76831L4.12402 10.9812C4.15132 11.0944 4.16699 11.2122 4.16699 11.3337C4.16699 11.4214 4.15799 11.507 4.14355 11.5906L8 13.7595L10.4219 12.3982L11.8564 11.5906C11.842 11.507 11.833 11.4214 11.833 11.3337C11.833 11.2123 11.8477 11.0943 11.875 10.9812L9.75195 9.76831C9.71756 9.74866 9.68696 9.72489 9.65918 9.69897L8 10.6667ZM9.19043 3.57593C9.01537 3.8048 8.77682 3.98084 8.5 4.07886V5.99976C8.5 6.09163 8.47293 6.17675 8.42969 6.25073L10 7.16675V8.83472C10.0843 8.83458 10.1697 8.85445 10.248 8.89917L12.4229 10.1423C12.5463 10.0479 12.6846 9.97241 12.834 9.91968V5.62573L9.19043 3.57593ZM3.16699 5.62573V9.92065C3.31564 9.97328 3.45323 10.0484 3.57617 10.1423L5.75195 8.89917C5.83035 8.85444 5.9157 8.83453 6 8.83472V7.16675L7.56934 6.25073C7.52625 6.17685 7.5 6.09146 7.5 5.99976V4.07886C7.22343 3.98093 6.98459 3.80547 6.80957 3.5769L3.16699 5.62573Z" fill="black" fill-opacity="0.6"/>
</svg>
