<svg preserveAspectRatio="none" width="100%" height="100%" overflow="visible" style="display: block;" viewBox="0 0 16 16" fill="none" xmlns="http://www.w3.org/2000/svg">
<g id="Frame 6">
<path id="Vector" d="M15.1792 3.41579C15.0239 3.33812 14.9568 3.48617 14.8661 3.56141C14.8352 3.58569 14.8088 3.61724 14.7824 3.64636C14.5554 3.89391 14.2903 4.05654 13.9435 4.03712C13.4368 4.008 13.0042 4.17061 12.6219 4.56623C12.5406 4.07838 12.2706 3.78713 11.8595 3.60025C11.6441 3.50317 11.4269 3.40608 11.2761 3.19491C11.1712 3.04444 11.1426 2.87697 11.0898 2.71193C11.0565 2.61242 11.0231 2.51049 10.9108 2.49349C10.7886 2.47407 10.7409 2.57844 10.693 2.66582C10.5019 3.0226 10.4275 3.41579 10.4351 3.81383C10.4515 4.70944 10.8223 5.423 11.5583 5.93027C11.642 5.98851 11.6635 6.04677 11.6371 6.1317C11.5871 6.30645 11.527 6.47636 11.4745 6.65111C11.4411 6.76277 11.3911 6.78703 11.2737 6.73849C10.8699 6.56616 10.521 6.31131 10.2124 6.00309C9.6891 5.4861 9.21581 4.91573 8.62572 4.46916C8.4891 4.36613 8.34874 4.26817 8.20492 4.17547C7.6027 3.57841 8.2838 3.08813 8.44157 3.02988C8.6063 2.9692 8.49891 2.76047 7.96586 2.76289C7.43281 2.76531 6.94525 2.94736 6.32391 3.19007C6.23291 3.22647 6.13732 3.25317 6.03964 3.27502C5.47534 3.16579 4.88981 3.14153 4.27786 3.21191C3.12591 3.34298 2.20572 3.89879 1.52918 4.84778C0.716703 5.98851 0.525255 7.2846 0.759781 8.63648C1.00553 10.0612 1.71817 11.2408 2.81281 12.1631C3.94808 13.1193 5.25539 13.5878 6.74684 13.498C7.65275 13.4446 8.66122 13.3208 9.79891 12.3378C10.0859 12.4834 10.3872 12.5417 10.8866 12.5854C11.2716 12.6218 11.642 12.566 11.9287 12.5053C12.378 12.4082 12.3468 11.9835 12.1845 11.9058C10.8675 11.2796 11.1566 11.5344 10.8939 11.3282C11.5631 10.5199 12.5716 9.68013 12.966 6.95936C12.9972 6.74335 12.9708 6.60743 12.966 6.43268C12.9636 6.32589 12.9872 6.28462 13.1071 6.27249C13.4368 6.23366 13.7572 6.14142 14.0512 5.97639C14.9043 5.50068 15.2487 4.71914 15.33 3.78228C15.3421 3.63908 15.3276 3.49103 15.1792 3.41579ZM7.74347 11.8475C6.46742 10.8233 5.8482 10.4859 5.59245 10.5005C5.35338 10.5151 5.39646 10.7942 5.44894 10.9762C5.50385 11.1558 5.57575 11.2796 5.67617 11.4374C5.74536 11.5417 5.7933 11.6971 5.60671 11.8136C5.19561 12.0733 4.48113 11.7262 4.44777 11.7092C3.61588 11.2092 2.9202 10.549 2.43023 9.64616C1.95695 8.77725 1.68239 7.84525 1.63687 6.85014C1.62473 6.60986 1.69421 6.5249 1.92813 6.4812C2.23619 6.42119 2.55211 6.41299 2.86286 6.45694C4.16563 6.65113 5.27481 7.24576 6.20438 8.18749C6.73501 8.72386 7.13638 9.36462 7.5502 9.99082C7.98982 10.6558 8.46311 11.2893 9.06533 11.8087C9.278 11.9907 9.44759 12.1291 9.61021 12.231C9.12023 12.2869 8.30262 12.299 7.74347 11.8475ZM8.3554 7.83069C8.3554 7.72389 8.43915 7.63894 8.5444 7.63894C8.56827 7.63935 8.58971 7.6434 8.60872 7.65108C8.64495 7.665 8.67604 7.68967 8.69785 7.72177C8.71965 7.75388 8.73111 7.79188 8.73069 7.83069C8.73102 7.8557 8.72638 7.88053 8.71705 7.90374C8.70771 7.92695 8.69387 7.94809 8.67633 7.96592C8.65878 7.98375 8.63787 7.99792 8.61481 8.00762C8.59175 8.01732 8.567 8.02236 8.54198 8.02244C8.51706 8.02236 8.49241 8.01732 8.46947 8.00759C8.44652 7.99786 8.42575 7.98365 8.40837 7.96579C8.39099 7.94793 8.37736 7.92678 8.36826 7.90358C8.35916 7.88038 8.35479 7.8556 8.3554 7.83069ZM10.2555 8.82579C10.1339 8.87677 10.0119 8.92047 9.89449 8.92531C9.71306 8.93502 9.51465 8.85979 9.40725 8.76755C9.23978 8.62434 9.12023 8.54425 9.07018 8.29426C9.04864 8.18747 9.06046 8.02244 9.07959 7.92778C9.12267 7.72389 9.07473 7.59284 8.93396 7.47391C8.81929 7.37681 8.67334 7.35012 8.51317 7.35012C8.45339 7.35012 8.39849 7.32343 8.35783 7.30158C8.33804 7.2921 8.32041 7.27863 8.30606 7.26202C8.29171 7.24541 8.28096 7.22601 8.27446 7.20505C8.26796 7.18408 8.26587 7.162 8.26832 7.14018C8.27076 7.11837 8.27768 7.0973 8.28866 7.07829C8.30534 7.04431 8.38665 6.96178 8.40577 6.94722C8.62328 6.82101 8.87419 6.86228 9.10597 6.95694C9.32108 7.04673 9.48339 7.21178 9.71792 7.44479C9.95698 7.72633 10.0001 7.80401 10.136 8.01516C10.2437 8.18019 10.3417 8.3501 10.4084 8.54425C10.4494 8.66562 10.3966 8.76512 10.2555 8.82579Z" fill="var(--fill-0, #4D6BFE)"/>
</g>
</svg>
