<svg preserveAspectRatio="none" width="100%" height="100%" overflow="visible" style="display: block;" viewBox="0 0 24 24" fill="none" xmlns="http://www.w3.org/2000/svg">
<g id="Ornament">
<path id="Union" d="M13.3838 7.60254C13.6599 7.12445 14.2718 6.96037 14.75 7.23633C15.2282 7.51242 15.3921 8.12429 15.1162 8.60254L13.7324 11H16.5C17.0523 11 17.5 11.4477 17.5 12C17.5 12.5523 17.0523 13 16.5 13H13.7324L15.1162 15.3965C15.3923 15.8747 15.2282 16.4865 14.75 16.7627C14.2717 17.0388 13.6599 16.8748 13.3838 16.3965L12 13.999L10.6162 16.3965C10.3401 16.8748 9.72829 17.0388 9.25 16.7627C8.77181 16.4865 8.60767 15.8747 8.88379 15.3965L10.2676 13H7.5C6.94772 13 6.5 12.5523 6.5 12C6.5 11.4477 6.94772 11 7.5 11H10.2676L8.88379 8.60254C8.60786 8.12429 8.7718 7.51242 9.25 7.23633C9.7282 6.96037 10.3401 7.12445 10.6162 7.60254L12 9.99902L13.3838 7.60254Z" fill="var(--fill-0, #0053FD)"/>
</g>
</svg>
