<svg preserveAspectRatio="none" width="100%" height="100%" overflow="visible" style="display: block;" viewBox="0 0 166 166" fill="none" xmlns="http://www.w3.org/2000/svg">
<g id="QRImage" clip-path="url(#clip0_0_5)">
<path id="Vector" d="M166 0H0V166H166V0Z" fill="var(--fill-0, white)"/>
<path id="Vector_2" d="M59.76 3.15905e-06H53.12V6.64H59.76V3.15905e-06Z" fill="var(--fill-0, #0B1220)"/>
<path id="Vector_3" d="M66.4 3.15905e-06H59.76V6.64H66.4V3.15905e-06Z" fill="var(--fill-0, #0B1220)"/>
<path id="Vector_4" d="M73.04 3.15905e-06H66.4V6.64H73.04V3.15905e-06Z" fill="var(--fill-0, #0B1220)"/>
<path id="Vector_5" d="M79.68 3.15905e-06H73.04V6.64H79.68V3.15905e-06Z" fill="var(--fill-0, #0B1220)"/>
<path id="Vector_6" d="M86.32 3.15905e-06H79.68V6.64H86.32V3.15905e-06Z" fill="var(--fill-0, #0B1220)"/>
<path id="Vector_7" d="M92.96 3.15905e-06H86.32V6.64H92.96V3.15905e-06Z" fill="var(--fill-0, #0B1220)"/>
<path id="Vector_8" d="M99.6 3.15905e-06H92.96V6.64H99.6V3.15905e-06Z" fill="var(--fill-0, #0B1220)"/>
<path id="Vector_9" d="M66.4 6.64H59.76V13.28H66.4V6.64Z" fill="var(--fill-0, #0B1220)"/>
<path id="Vector_10" d="M86.32 6.64H79.68V13.28H86.32V6.64Z" fill="var(--fill-0, #0B1220)"/>
<path id="Vector_11" d="M106.24 6.64H99.6V13.28H106.24V6.64Z" fill="var(--fill-0, #0B1220)"/>
<path id="Vector_12" d="M59.76 13.28H53.12V19.92H59.76V13.28Z" fill="var(--fill-0, #0B1220)"/>
<path id="Vector_13" d="M73.04 13.28H66.4V19.92H73.04V13.28Z" fill="var(--fill-0, #0B1220)"/>
<path id="Vector_14" d="M79.68 13.28H73.04V19.92H79.68V13.28Z" fill="var(--fill-0, #0B1220)"/>
<path id="Vector_15" d="M106.24 13.28H99.6V19.92H106.24V13.28Z" fill="var(--fill-0, #0B1220)"/>
<path id="Vector_16" d="M66.4 19.92H59.76V26.56H66.4V19.92Z" fill="var(--fill-0, #0B1220)"/>
<path id="Vector_17" d="M86.32 19.92H79.68V26.56H86.32V19.92Z" fill="var(--fill-0, #0B1220)"/>
<path id="Vector_18" d="M92.96 19.92H86.32V26.56H92.96V19.92Z" fill="var(--fill-0, #0B1220)"/>
<path id="Vector_19" d="M106.24 19.92H99.6V26.56H106.24V19.92Z" fill="var(--fill-0, #0B1220)"/>
<path id="Vector_20" d="M112.88 19.92H106.24V26.56H112.88V19.92Z" fill="var(--fill-0, #0B1220)"/>
<path id="Vector_21" d="M59.76 26.56H53.12V33.2H59.76V26.56Z" fill="var(--fill-0, #0B1220)"/>
<path id="Vector_22" d="M66.4 26.56H59.76V33.2H66.4V26.56Z" fill="var(--fill-0, #0B1220)"/>
<path id="Vector_23" d="M73.04 26.56H66.4V33.2H73.04V26.56Z" fill="var(--fill-0, #0B1220)"/>
<path id="Vector_24" d="M79.68 26.56H73.04V33.2H79.68V26.56Z" fill="var(--fill-0, #0B1220)"/>
<path id="Vector_25" d="M99.6 26.56H92.96V33.2H99.6V26.56Z" fill="var(--fill-0, #0B1220)"/>
<path id="Vector_26" d="M106.24 26.56H99.6V33.2H106.24V26.56Z" fill="var(--fill-0, #0B1220)"/>
<path id="Vector_27" d="M66.4 33.2H59.76V39.84H66.4V33.2Z" fill="var(--fill-0, #0B1220)"/>
<path id="Vector_28" d="M79.68 33.2H73.04V39.84H79.68V33.2Z" fill="var(--fill-0, #0B1220)"/>
<path id="Vector_29" d="M106.24 33.2H99.6V39.84H106.24V33.2Z" fill="var(--fill-0, #0B1220)"/>
<path id="Vector_30" d="M59.76 39.84H53.12V46.48H59.76V39.84Z" fill="var(--fill-0, #0B1220)"/>
<path id="Vector_31" d="M73.04 39.84H66.4V46.48H73.04V39.84Z" fill="var(--fill-0, #0B1220)"/>
<path id="Vector_32" d="M86.32 39.84H79.68V46.48H86.32V39.84Z" fill="var(--fill-0, #0B1220)"/>
<path id="Vector_33" d="M99.6 39.84H92.96V46.48H99.6V39.84Z" fill="var(--fill-0, #0B1220)"/>
<path id="Vector_34" d="M112.88 39.84H106.24V46.48H112.88V39.84Z" fill="var(--fill-0, #0B1220)"/>
<path id="Vector_35" d="M59.76 46.48H53.12V53.12H59.76V46.48Z" fill="var(--fill-0, #0B1220)"/>
<path id="Vector_36" d="M73.04 46.48H66.4V53.12H73.04V46.48Z" fill="var(--fill-0, #0B1220)"/>
<path id="Vector_37" d="M92.96 46.48H86.32V53.12H92.96V46.48Z" fill="var(--fill-0, #0B1220)"/>
<path id="Vector_38" d="M99.6 46.48H92.96V53.12H99.6V46.48Z" fill="var(--fill-0, #0B1220)"/>
<path id="Vector_39" d="M106.24 46.48H99.6V53.12H106.24V46.48Z" fill="var(--fill-0, #0B1220)"/>
<path id="Vector_40" d="M6.64 53.12H3.15905e-06V59.76H6.64V53.12Z" fill="var(--fill-0, #0B1220)"/>
<path id="Vector_41" d="M13.28 53.12H6.64V59.76H13.28V53.12Z" fill="var(--fill-0, #0B1220)"/>
<path id="Vector_42" d="M19.92 53.12H13.28V59.76H19.92V53.12Z" fill="var(--fill-0, #0B1220)"/>
<path id="Vector_43" d="M26.56 53.12H19.92V59.76H26.56V53.12Z" fill="var(--fill-0, #0B1220)"/>
<path id="Vector_44" d="M33.2 53.12H26.56V59.76H33.2V53.12Z" fill="var(--fill-0, #0B1220)"/>
<path id="Vector_45" d="M46.48 53.12H39.84V59.76H46.48V53.12Z" fill="var(--fill-0, #0B1220)"/>
<path id="Vector_46" d="M59.76 53.12H53.12V59.76H59.76V53.12Z" fill="var(--fill-0, #0B1220)"/>
<path id="Vector_47" d="M66.4 53.12H59.76V59.76H66.4V53.12Z" fill="var(--fill-0, #0B1220)"/>
<path id="Vector_48" d="M73.04 53.12H66.4V59.76H73.04V53.12Z" fill="var(--fill-0, #0B1220)"/>
<path id="Vector_49" d="M79.68 53.12H73.04V59.76H79.68V53.12Z" fill="var(--fill-0, #0B1220)"/>
<path id="Vector_50" d="M106.24 53.12H99.6V59.76H106.24V53.12Z" fill="var(--fill-0, #0B1220)"/>
<path id="Vector_51" d="M112.88 53.12H106.24V59.76H112.88V53.12Z" fill="var(--fill-0, #0B1220)"/>
<path id="Vector_52" d="M119.52 53.12H112.88V59.76H119.52V53.12Z" fill="var(--fill-0, #0B1220)"/>
<path id="Vector_53" d="M126.16 53.12H119.52V59.76H126.16V53.12Z" fill="var(--fill-0, #0B1220)"/>
<path id="Vector_54" d="M159.36 53.12H152.72V59.76H159.36V53.12Z" fill="var(--fill-0, #0B1220)"/>
<path id="Vector_55" d="M166 53.12H159.36V59.76H166V53.12Z" fill="var(--fill-0, #0B1220)"/>
<path id="Vector_56" d="M19.92 59.76H13.28V66.4H19.92V59.76Z" fill="var(--fill-0, #0B1220)"/>
<path id="Vector_57" d="M26.56 59.76H19.92V66.4H26.56V59.76Z" fill="var(--fill-0, #0B1220)"/>
<path id="Vector_58" d="M39.84 59.76H33.2V66.4H39.84V59.76Z" fill="var(--fill-0, #0B1220)"/>
<path id="Vector_59" d="M59.76 59.76H53.12V66.4H59.76V59.76Z" fill="var(--fill-0, #0B1220)"/>
<path id="Vector_60" d="M66.4 59.76H59.76V66.4H66.4V59.76Z" fill="var(--fill-0, #0B1220)"/>
<path id="Vector_61" d="M73.04 59.76H66.4V66.4H73.04V59.76Z" fill="var(--fill-0, #0B1220)"/>
<path id="Vector_62" d="M79.68 59.76H73.04V66.4H79.68V59.76Z" fill="var(--fill-0, #0B1220)"/>
<path id="Vector_63" d="M86.32 59.76H79.68V66.4H86.32V59.76Z" fill="var(--fill-0, #0B1220)"/>
<path id="Vector_64" d="M99.6 59.76H92.96V66.4H99.6V59.76Z" fill="var(--fill-0, #0B1220)"/>
<path id="Vector_65" d="M112.88 59.76H106.24V66.4H112.88V59.76Z" fill="var(--fill-0, #0B1220)"/>
<path id="Vector_66" d="M126.16 59.76H119.52V66.4H126.16V59.76Z" fill="var(--fill-0, #0B1220)"/>
<path id="Vector_67" d="M139.44 59.76H132.8V66.4H139.44V59.76Z" fill="var(--fill-0, #0B1220)"/>
<path id="Vector_68" d="M146.08 59.76H139.44V66.4H146.08V59.76Z" fill="var(--fill-0, #0B1220)"/>
<path id="Vector_69" d="M152.72 59.76H146.08V66.4H152.72V59.76Z" fill="var(--fill-0, #0B1220)"/>
<path id="Vector_70" d="M159.36 59.76H152.72V66.4H159.36V59.76Z" fill="var(--fill-0, #0B1220)"/>
<path id="Vector_71" d="M166 59.76H159.36V66.4H166V59.76Z" fill="var(--fill-0, #0B1220)"/>
<path id="Vector_72" d="M6.64 66.4H3.15905e-06V73.04H6.64V66.4Z" fill="var(--fill-0, #0B1220)"/>
<path id="Vector_73" d="M19.92 66.4H13.28V73.04H19.92V66.4Z" fill="var(--fill-0, #0B1220)"/>
<path id="Vector_74" d="M39.84 66.4H33.2V73.04H39.84V66.4Z" fill="var(--fill-0, #0B1220)"/>
<path id="Vector_75" d="M46.48 66.4H39.84V73.04H46.48V66.4Z" fill="var(--fill-0, #0B1220)"/>
<path id="Vector_76" d="M53.12 66.4H46.48V73.04H53.12V66.4Z" fill="var(--fill-0, #0B1220)"/>
<path id="Vector_77" d="M59.76 66.4H53.12V73.04H59.76V66.4Z" fill="var(--fill-0, #0B1220)"/>
<path id="Vector_78" d="M66.4 66.4H59.76V73.04H66.4V66.4Z" fill="var(--fill-0, #0B1220)"/>
<path id="Vector_79" d="M79.68 66.4H73.04V73.04H79.68V66.4Z" fill="var(--fill-0, #0B1220)"/>
<path id="Vector_80" d="M92.96 66.4H86.32V73.04H92.96V66.4Z" fill="var(--fill-0, #0B1220)"/>
<path id="Vector_81" d="M132.8 66.4H126.16V73.04H132.8V66.4Z" fill="var(--fill-0, #0B1220)"/>
<path id="Vector_82" d="M152.72 66.4H146.08V73.04H152.72V66.4Z" fill="var(--fill-0, #0B1220)"/>
<path id="Vector_83" d="M166 66.4H159.36V73.04H166V66.4Z" fill="var(--fill-0, #0B1220)"/>
<path id="Vector_84" d="M19.92 73.04H13.28V79.68H19.92V73.04Z" fill="var(--fill-0, #0B1220)"/>
<path id="Vector_85" d="M26.56 73.04H19.92V79.68H26.56V73.04Z" fill="var(--fill-0, #0B1220)"/>
<path id="Vector_86" d="M39.84 73.04H33.2V79.68H39.84V73.04Z" fill="var(--fill-0, #0B1220)"/>
<path id="Vector_87" d="M53.12 73.04H46.48V79.68H53.12V73.04Z" fill="var(--fill-0, #0B1220)"/>
<path id="Vector_88" d="M59.76 73.04H53.12V79.68H59.76V73.04Z" fill="var(--fill-0, #0B1220)"/>
<path id="Vector_89" d="M79.68 73.04H73.04V79.68H79.68V73.04Z" fill="var(--fill-0, #0B1220)"/>
<path id="Vector_90" d="M86.32 73.04H79.68V79.68H86.32V73.04Z" fill="var(--fill-0, #0B1220)"/>
<path id="Vector_91" d="M112.88 73.04H106.24V79.68H112.88V73.04Z" fill="var(--fill-0, #0B1220)"/>
<path id="Vector_92" d="M126.16 73.04H119.52V79.68H126.16V73.04Z" fill="var(--fill-0, #0B1220)"/>
<path id="Vector_93" d="M139.44 73.04H132.8V79.68H139.44V73.04Z" fill="var(--fill-0, #0B1220)"/>
<path id="Vector_94" d="M146.08 73.04H139.44V79.68H146.08V73.04Z" fill="var(--fill-0, #0B1220)"/>
<path id="Vector_95" d="M152.72 73.04H146.08V79.68H152.72V73.04Z" fill="var(--fill-0, #0B1220)"/>
<path id="Vector_96" d="M13.28 79.68H6.64V86.32H13.28V79.68Z" fill="var(--fill-0, #0B1220)"/>
<path id="Vector_97" d="M46.48 79.68H39.84V86.32H46.48V79.68Z" fill="var(--fill-0, #0B1220)"/>
<path id="Vector_98" d="M53.12 79.68H46.48V86.32H53.12V79.68Z" fill="var(--fill-0, #0B1220)"/>
<path id="Vector_99" d="M59.76 79.68H53.12V86.32H59.76V79.68Z" fill="var(--fill-0, #0B1220)"/>
<path id="Vector_100" d="M73.04 79.68H66.4V86.32H73.04V79.68Z" fill="var(--fill-0, #0B1220)"/>
<path id="Vector_101" d="M106.24 79.68H99.6V86.32H106.24V79.68Z" fill="var(--fill-0, #0B1220)"/>
<path id="Vector_102" d="M112.88 79.68H106.24V86.32H112.88V79.68Z" fill="var(--fill-0, #0B1220)"/>
<path id="Vector_103" d="M139.44 79.68H132.8V86.32H139.44V79.68Z" fill="var(--fill-0, #0B1220)"/>
<path id="Vector_104" d="M152.72 79.68H146.08V86.32H152.72V79.68Z" fill="var(--fill-0, #0B1220)"/>
<path id="Vector_105" d="M159.36 79.68H152.72V86.32H159.36V79.68Z" fill="var(--fill-0, #0B1220)"/>
<path id="Vector_106" d="M6.64 86.32H3.15905e-06V92.96H6.64V86.32Z" fill="var(--fill-0, #0B1220)"/>
<path id="Vector_107" d="M13.28 86.32H6.64V92.96H13.28V86.32Z" fill="var(--fill-0, #0B1220)"/>
<path id="Vector_108" d="M19.92 86.32H13.28V92.96H19.92V86.32Z" fill="var(--fill-0, #0B1220)"/>
<path id="Vector_109" d="M39.84 86.32H33.2V92.96H39.84V86.32Z" fill="var(--fill-0, #0B1220)"/>
<path id="Vector_110" d="M73.04 86.32H66.4V92.96H73.04V86.32Z" fill="var(--fill-0, #0B1220)"/>
<path id="Vector_111" d="M79.68 86.32H73.04V92.96H79.68V86.32Z" fill="var(--fill-0, #0B1220)"/>
<path id="Vector_112" d="M106.24 86.32H99.6V92.96H106.24V86.32Z" fill="var(--fill-0, #0B1220)"/>
<path id="Vector_113" d="M132.8 86.32H126.16V92.96H132.8V86.32Z" fill="var(--fill-0, #0B1220)"/>
<path id="Vector_114" d="M139.44 86.32H132.8V92.96H139.44V86.32Z" fill="var(--fill-0, #0B1220)"/>
<path id="Vector_115" d="M146.08 86.32H139.44V92.96H146.08V86.32Z" fill="var(--fill-0, #0B1220)"/>
<path id="Vector_116" d="M39.84 92.96H33.2V99.6H39.84V92.96Z" fill="var(--fill-0, #0B1220)"/>
<path id="Vector_117" d="M46.48 92.96H39.84V99.6H46.48V92.96Z" fill="var(--fill-0, #0B1220)"/>
<path id="Vector_118" d="M59.76 92.96H53.12V99.6H59.76V92.96Z" fill="var(--fill-0, #0B1220)"/>
<path id="Vector_119" d="M73.04 92.96H66.4V99.6H73.04V92.96Z" fill="var(--fill-0, #0B1220)"/>
<path id="Vector_120" d="M79.68 92.96H73.04V99.6H79.68V92.96Z" fill="var(--fill-0, #0B1220)"/>
<path id="Vector_121" d="M86.32 92.96H79.68V99.6H86.32V92.96Z" fill="var(--fill-0, #0B1220)"/>
<path id="Vector_122" d="M92.96 92.96H86.32V99.6H92.96V92.96Z" fill="var(--fill-0, #0B1220)"/>
<path id="Vector_123" d="M106.24 92.96H99.6V99.6H106.24V92.96Z" fill="var(--fill-0, #0B1220)"/>
<path id="Vector_124" d="M112.88 92.96H106.24V99.6H112.88V92.96Z" fill="var(--fill-0, #0B1220)"/>
<path id="Vector_125" d="M119.52 92.96H112.88V99.6H119.52V92.96Z" fill="var(--fill-0, #0B1220)"/>
<path id="Vector_126" d="M126.16 92.96H119.52V99.6H126.16V92.96Z" fill="var(--fill-0, #0B1220)"/>
<path id="Vector_127" d="M132.8 92.96H126.16V99.6H132.8V92.96Z" fill="var(--fill-0, #0B1220)"/>
<path id="Vector_128" d="M139.44 92.96H132.8V99.6H139.44V92.96Z" fill="var(--fill-0, #0B1220)"/>
<path id="Vector_129" d="M146.08 92.96H139.44V99.6H146.08V92.96Z" fill="var(--fill-0, #0B1220)"/>
<path id="Vector_130" d="M152.72 92.96H146.08V99.6H152.72V92.96Z" fill="var(--fill-0, #0B1220)"/>
<path id="Vector_131" d="M6.64 99.6H3.15905e-06V106.24H6.64V99.6Z" fill="var(--fill-0, #0B1220)"/>
<path id="Vector_132" d="M13.28 99.6H6.64V106.24H13.28V99.6Z" fill="var(--fill-0, #0B1220)"/>
<path id="Vector_133" d="M19.92 99.6H13.28V106.24H19.92V99.6Z" fill="var(--fill-0, #0B1220)"/>
<path id="Vector_134" d="M33.2 99.6H26.56V106.24H33.2V99.6Z" fill="var(--fill-0, #0B1220)"/>
<path id="Vector_135" d="M92.96 99.6H86.32V106.24H92.96V99.6Z" fill="var(--fill-0, #0B1220)"/>
<path id="Vector_136" d="M99.6 99.6H92.96V106.24H99.6V99.6Z" fill="var(--fill-0, #0B1220)"/>
<path id="Vector_137" d="M106.24 99.6H99.6V106.24H106.24V99.6Z" fill="var(--fill-0, #0B1220)"/>
<path id="Vector_138" d="M112.88 99.6H106.24V106.24H112.88V99.6Z" fill="var(--fill-0, #0B1220)"/>
<path id="Vector_139" d="M126.16 99.6H119.52V106.24H126.16V99.6Z" fill="var(--fill-0, #0B1220)"/>
<path id="Vector_140" d="M132.8 99.6H126.16V106.24H132.8V99.6Z" fill="var(--fill-0, #0B1220)"/>
<path id="Vector_141" d="M139.44 99.6H132.8V106.24H139.44V99.6Z" fill="var(--fill-0, #0B1220)"/>
<path id="Vector_142" d="M146.08 99.6H139.44V106.24H146.08V99.6Z" fill="var(--fill-0, #0B1220)"/>
<path id="Vector_143" d="M152.72 99.6H146.08V106.24H152.72V99.6Z" fill="var(--fill-0, #0B1220)"/>
<path id="Vector_144" d="M159.36 99.6H152.72V106.24H159.36V99.6Z" fill="var(--fill-0, #0B1220)"/>
<path id="Vector_145" d="M6.64 106.24H3.15905e-06V112.88H6.64V106.24Z" fill="var(--fill-0, #0B1220)"/>
<path id="Vector_146" d="M19.92 106.24H13.28V112.88H19.92V106.24Z" fill="var(--fill-0, #0B1220)"/>
<path id="Vector_147" d="M46.48 106.24H39.84V112.88H46.48V106.24Z" fill="var(--fill-0, #0B1220)"/>
<path id="Vector_148" d="M53.12 106.24H46.48V112.88H53.12V106.24Z" fill="var(--fill-0, #0B1220)"/>
<path id="Vector_149" d="M59.76 106.24H53.12V112.88H59.76V106.24Z" fill="var(--fill-0, #0B1220)"/>
<path id="Vector_150" d="M79.68 106.24H73.04V112.88H79.68V106.24Z" fill="var(--fill-0, #0B1220)"/>
<path id="Vector_151" d="M86.32 106.24H79.68V112.88H86.32V106.24Z" fill="var(--fill-0, #0B1220)"/>
<path id="Vector_152" d="M92.96 106.24H86.32V112.88H92.96V106.24Z" fill="var(--fill-0, #0B1220)"/>
<path id="Vector_153" d="M146.08 106.24H139.44V112.88H146.08V106.24Z" fill="var(--fill-0, #0B1220)"/>
<path id="Vector_154" d="M152.72 106.24H146.08V112.88H152.72V106.24Z" fill="var(--fill-0, #0B1220)"/>
<path id="Vector_155" d="M159.36 106.24H152.72V112.88H159.36V106.24Z" fill="var(--fill-0, #0B1220)"/>
<path id="Vector_156" d="M66.4 112.88H59.76V119.52H66.4V112.88Z" fill="var(--fill-0, #0B1220)"/>
<path id="Vector_157" d="M73.04 112.88H66.4V119.52H73.04V112.88Z" fill="var(--fill-0, #0B1220)"/>
<path id="Vector_158" d="M92.96 112.88H86.32V119.52H92.96V112.88Z" fill="var(--fill-0, #0B1220)"/>
<path id="Vector_159" d="M106.24 112.88H99.6V119.52H106.24V112.88Z" fill="var(--fill-0, #0B1220)"/>
<path id="Vector_160" d="M112.88 112.88H106.24V119.52H112.88V112.88Z" fill="var(--fill-0, #0B1220)"/>
<path id="Vector_161" d="M126.16 112.88H119.52V119.52H126.16V112.88Z" fill="var(--fill-0, #0B1220)"/>
<path id="Vector_162" d="M139.44 112.88H132.8V119.52H139.44V112.88Z" fill="var(--fill-0, #0B1220)"/>
<path id="Vector_163" d="M146.08 112.88H139.44V119.52H146.08V112.88Z" fill="var(--fill-0, #0B1220)"/>
<path id="Vector_164" d="M152.72 112.88H146.08V119.52H152.72V112.88Z" fill="var(--fill-0, #0B1220)"/>
<path id="Vector_165" d="M79.68 119.52H73.04V126.16H79.68V119.52Z" fill="var(--fill-0, #0B1220)"/>
<path id="Vector_166" d="M106.24 119.52H99.6V126.16H106.24V119.52Z" fill="var(--fill-0, #0B1220)"/>
<path id="Vector_167" d="M119.52 119.52H112.88V126.16H119.52V119.52Z" fill="var(--fill-0, #0B1220)"/>
<path id="Vector_168" d="M126.16 119.52H119.52V126.16H126.16V119.52Z" fill="var(--fill-0, #0B1220)"/>
<path id="Vector_169" d="M132.8 119.52H126.16V126.16H132.8V119.52Z" fill="var(--fill-0, #0B1220)"/>
<path id="Vector_170" d="M139.44 119.52H132.8V126.16H139.44V119.52Z" fill="var(--fill-0, #0B1220)"/>
<path id="Vector_171" d="M152.72 119.52H146.08V126.16H152.72V119.52Z" fill="var(--fill-0, #0B1220)"/>
<path id="Vector_172" d="M166 119.52H159.36V126.16H166V119.52Z" fill="var(--fill-0, #0B1220)"/>
<path id="Vector_173" d="M59.76 126.16H53.12V132.8H59.76V126.16Z" fill="var(--fill-0, #0B1220)"/>
<path id="Vector_174" d="M66.4 126.16H59.76V132.8H66.4V126.16Z" fill="var(--fill-0, #0B1220)"/>
<path id="Vector_175" d="M73.04 126.16H66.4V132.8H73.04V126.16Z" fill="var(--fill-0, #0B1220)"/>
<path id="Vector_176" d="M79.68 126.16H73.04V132.8H79.68V126.16Z" fill="var(--fill-0, #0B1220)"/>
<path id="Vector_177" d="M99.6 126.16H92.96V132.8H99.6V126.16Z" fill="var(--fill-0, #0B1220)"/>
<path id="Vector_178" d="M119.52 126.16H112.88V132.8H119.52V126.16Z" fill="var(--fill-0, #0B1220)"/>
<path id="Vector_179" d="M126.16 126.16H119.52V132.8H126.16V126.16Z" fill="var(--fill-0, #0B1220)"/>
<path id="Vector_180" d="M132.8 126.16H126.16V132.8H132.8V126.16Z" fill="var(--fill-0, #0B1220)"/>
<path id="Vector_181" d="M139.44 126.16H132.8V132.8H139.44V126.16Z" fill="var(--fill-0, #0B1220)"/>
<path id="Vector_182" d="M152.72 126.16H146.08V132.8H152.72V126.16Z" fill="var(--fill-0, #0B1220)"/>
<path id="Vector_183" d="M159.36 126.16H152.72V132.8H159.36V126.16Z" fill="var(--fill-0, #0B1220)"/>
<path id="Vector_184" d="M59.76 132.8H53.12V139.44H59.76V132.8Z" fill="var(--fill-0, #0B1220)"/>
<path id="Vector_185" d="M73.04 132.8H66.4V139.44H73.04V132.8Z" fill="var(--fill-0, #0B1220)"/>
<path id="Vector_186" d="M86.32 132.8H79.68V139.44H86.32V132.8Z" fill="var(--fill-0, #0B1220)"/>
<path id="Vector_187" d="M92.96 132.8H86.32V139.44H92.96V132.8Z" fill="var(--fill-0, #0B1220)"/>
<path id="Vector_188" d="M112.88 132.8H106.24V139.44H112.88V132.8Z" fill="var(--fill-0, #0B1220)"/>
<path id="Vector_189" d="M119.52 132.8H112.88V139.44H119.52V132.8Z" fill="var(--fill-0, #0B1220)"/>
<path id="Vector_190" d="M126.16 132.8H119.52V139.44H126.16V132.8Z" fill="var(--fill-0, #0B1220)"/>
<path id="Vector_191" d="M146.08 132.8H139.44V139.44H146.08V132.8Z" fill="var(--fill-0, #0B1220)"/>
<path id="Vector_192" d="M152.72 132.8H146.08V139.44H152.72V132.8Z" fill="var(--fill-0, #0B1220)"/>
<path id="Vector_193" d="M159.36 132.8H152.72V139.44H159.36V132.8Z" fill="var(--fill-0, #0B1220)"/>
<path id="Vector_194" d="M166 132.8H159.36V139.44H166V132.8Z" fill="var(--fill-0, #0B1220)"/>
<path id="Vector_195" d="M59.76 139.44H53.12V146.08H59.76V139.44Z" fill="var(--fill-0, #0B1220)"/>
<path id="Vector_196" d="M66.4 139.44H59.76V146.08H66.4V139.44Z" fill="var(--fill-0, #0B1220)"/>
<path id="Vector_197" d="M86.32 139.44H79.68V146.08H86.32V139.44Z" fill="var(--fill-0, #0B1220)"/>
<path id="Vector_198" d="M106.24 139.44H99.6V146.08H106.24V139.44Z" fill="var(--fill-0, #0B1220)"/>
<path id="Vector_199" d="M119.52 139.44H112.88V146.08H119.52V139.44Z" fill="var(--fill-0, #0B1220)"/>
<path id="Vector_200" d="M126.16 139.44H119.52V146.08H126.16V139.44Z" fill="var(--fill-0, #0B1220)"/>
<path id="Vector_201" d="M146.08 139.44H139.44V146.08H146.08V139.44Z" fill="var(--fill-0, #0B1220)"/>
<path id="Vector_202" d="M152.72 139.44H146.08V146.08H152.72V139.44Z" fill="var(--fill-0, #0B1220)"/>
<path id="Vector_203" d="M159.36 139.44H152.72V146.08H159.36V139.44Z" fill="var(--fill-0, #0B1220)"/>
<path id="Vector_204" d="M66.4 146.08H59.76V152.72H66.4V146.08Z" fill="var(--fill-0, #0B1220)"/>
<path id="Vector_205" d="M73.04 146.08H66.4V152.72H73.04V146.08Z" fill="var(--fill-0, #0B1220)"/>
<path id="Vector_206" d="M126.16 146.08H119.52V152.72H126.16V146.08Z" fill="var(--fill-0, #0B1220)"/>
<path id="Vector_207" d="M132.8 146.08H126.16V152.72H132.8V146.08Z" fill="var(--fill-0, #0B1220)"/>
<path id="Vector_208" d="M139.44 146.08H132.8V152.72H139.44V146.08Z" fill="var(--fill-0, #0B1220)"/>
<path id="Vector_209" d="M146.08 146.08H139.44V152.72H146.08V146.08Z" fill="var(--fill-0, #0B1220)"/>
<path id="Vector_210" d="M159.36 146.08H152.72V152.72H159.36V146.08Z" fill="var(--fill-0, #0B1220)"/>
<path id="Vector_211" d="M86.32 152.72H79.68V159.36H86.32V152.72Z" fill="var(--fill-0, #0B1220)"/>
<path id="Vector_212" d="M99.6 152.72H92.96V159.36H99.6V152.72Z" fill="var(--fill-0, #0B1220)"/>
<path id="Vector_213" d="M112.88 152.72H106.24V159.36H112.88V152.72Z" fill="var(--fill-0, #0B1220)"/>
<path id="Vector_214" d="M119.52 152.72H112.88V159.36H119.52V152.72Z" fill="var(--fill-0, #0B1220)"/>
<path id="Vector_215" d="M139.44 152.72H132.8V159.36H139.44V152.72Z" fill="var(--fill-0, #0B1220)"/>
<path id="Vector_216" d="M152.72 152.72H146.08V159.36H152.72V152.72Z" fill="var(--fill-0, #0B1220)"/>
<path id="Vector_217" d="M159.36 152.72H152.72V159.36H159.36V152.72Z" fill="var(--fill-0, #0B1220)"/>
<path id="Vector_218" d="M166 152.72H159.36V159.36H166V152.72Z" fill="var(--fill-0, #0B1220)"/>
<path id="Vector_219" d="M66.4 159.36H59.76V166H66.4V159.36Z" fill="var(--fill-0, #0B1220)"/>
<path id="Vector_220" d="M79.68 159.36H73.04V166H79.68V159.36Z" fill="var(--fill-0, #0B1220)"/>
<path id="Vector_221" d="M86.32 159.36H79.68V166H86.32V159.36Z" fill="var(--fill-0, #0B1220)"/>
<path id="Vector_222" d="M92.96 159.36H86.32V166H92.96V159.36Z" fill="var(--fill-0, #0B1220)"/>
<path id="Vector_223" d="M106.24 159.36H99.6V166H106.24V159.36Z" fill="var(--fill-0, #0B1220)"/>
<path id="Vector_224" d="M139.44 159.36H132.8V166H139.44V159.36Z" fill="var(--fill-0, #0B1220)"/>
<path id="Vector_225" d="M146.08 159.36H139.44V166H146.08V159.36Z" fill="var(--fill-0, #0B1220)"/>
<path id="Vector_226" d="M166 159.36H159.36V166H166V159.36Z" fill="var(--fill-0, #0B1220)"/>
<path id="Vector_227" d="M46.48 0H0V46.48H46.48V0Z" fill="var(--fill-0, #0B1220)"/>
<path id="Vector_228" d="M39.84 6.64H6.64V39.84H39.84V6.64Z" fill="var(--fill-0, white)"/>
<path id="Vector_229" d="M33.2 13.28H13.28V33.2H33.2V13.28Z" fill="var(--fill-0, #0B1220)"/>
<path id="Vector_230" d="M166 3.15905e-06H119.52V46.48H166V3.15905e-06Z" fill="var(--fill-0, #0B1220)"/>
<path id="Vector_231" d="M159.36 6.64H126.16V39.84H159.36V6.64Z" fill="var(--fill-0, white)"/>
<path id="Vector_232" d="M152.72 13.28H132.8V33.2H152.72V13.28Z" fill="var(--fill-0, #0B1220)"/>
<path id="Vector_233" d="M46.48 119.52H3.15905e-06V166H46.48V119.52Z" fill="var(--fill-0, #0B1220)"/>
<path id="Vector_234" d="M39.84 126.16H6.64V159.36H39.84V126.16Z" fill="var(--fill-0, white)"/>
<path id="Vector_235" d="M33.2 132.8H13.28V152.72H33.2V132.8Z" fill="var(--fill-0, #0B1220)"/>
</g>
<defs>
<clipPath id="clip0_0_5">
<rect width="166" height="166" fill="white"/>
</clipPath>
</defs>
</svg>
