<svg preserveAspectRatio="none" width="100%" height="100%" overflow="visible" style="display: block;" viewBox="0 0 24 24" fill="none" xmlns="http://www.w3.org/2000/svg">
<g id="IconWrap">
<path id="Subtract" d="M17 2C17.5523 2 18 2.44772 18 3V4.5H21C21.8284 4.5 22.5 5.17157 22.5 6V19C22.5 19.8284 21.8284 20.5 21 20.5H3C2.17157 20.5 1.5 19.8284 1.5 19V6C1.5 5.17157 2.17157 4.5 3 4.5H6V3C6 2.44772 6.44772 2 7 2C7.55228 2 8 2.44772 8 3V4.5H16V3C16 2.44772 16.4477 2 17 2ZM7 14.5C6.44772 14.5 6 14.9477 6 15.5C6 16.0523 6.44772 16.5 7 16.5H17C17.5523 16.5 18 16.0523 18 15.5C18 14.9477 17.5523 14.5 17 14.5H7ZM7 10.5C6.44772 10.5 6 10.9477 6 11.5C6 12.0523 6.44772 12.5 7 12.5H12.5C13.0523 12.5 13.5 12.0523 13.5 11.5C13.5 10.9477 13.0523 10.5 12.5 10.5H7Z" fill="var(--fill-0, #FFC552)"/>
</g>
</svg>
