<svg preserveAspectRatio="none" width="100%" height="100%" overflow="visible" style="display: block;" viewBox="0 0 24 24" fill="none" xmlns="http://www.w3.org/2000/svg">
<g id="IconWrap">
<path id="Subtract" d="M9.72363 2.48205C9.96675 2.50897 10.1922 2.62907 10.3506 2.81896L12.4453 5.33264H20.0947C21.1466 5.33264 21.9998 6.18608 22 7.23791V19.6188C22 20.6708 21.1467 21.524 20.0947 21.524H3.9043C2.85255 21.5238 2 20.6706 2 19.6188V4.38049C2.00031 3.32894 2.85273 2.47644 3.9043 2.47619H9.61914L9.72363 2.48205ZM7.91211 10.3737C7.54031 10.0021 6.93731 10.0022 6.56543 10.3737C6.19359 10.7455 6.19376 11.3484 6.56543 11.7203L8.27246 13.4283L6.56543 15.1363C6.19367 15.5082 6.19368 16.1111 6.56543 16.483C6.93734 16.8546 7.54027 16.8547 7.91211 16.483L10.293 14.1022C10.6647 13.7302 10.6648 13.1264 10.293 12.7545L7.91211 10.3737ZM12.9531 14.857C12.4273 14.857 12.0012 15.2834 12.001 15.8092C12.001 16.3352 12.4271 16.7613 12.9531 16.7613H16.7627C17.2886 16.7612 17.7148 16.3351 17.7148 15.8092C17.7146 15.2835 17.2884 14.8572 16.7627 14.857H12.9531Z" fill="var(--fill-0, #00D491)"/>
</g>
</svg>
