<svg width="15" height="15" viewBox="0 0 15 15" fill="none" xmlns="http://www.w3.org/2000/svg">
  <g clip-path="url(#scenario-pen-clip)">
    <path d="M7.45634 2.89998L10.0963 5.53999L6.47553 9.16536C6.30594 9.33495 6.09051 9.44493 5.85676 9.48618L3.68426 9.84828C3.65676 9.85286 3.63386 9.85286 3.60636 9.85286C3.48719 9.85286 3.36801 9.80243 3.28093 9.71534C3.17551 9.60993 3.12511 9.45873 3.14802 9.31206L3.5101 7.13957C3.55135 6.90582 3.66135 6.69036 3.83093 6.52077L7.45634 2.89998ZM11.3018 1.69451C10.9488 1.33701 10.4813 1.14453 9.98176 1.14453C9.48218 1.14453 9.01468 1.33701 8.66176 1.69451L8.10719 2.24907L10.7472 4.88908L11.3018 4.33451C11.6593 3.9816 11.8518 3.51415 11.8518 3.01457C11.8518 2.51498 11.6593 2.04743 11.3018 1.69451Z" fill="currentColor"/>
    <path d="M3.5 12C3.5 12 5.43601 13.1251 7.5 12C9.56399 10.8749 11.5 12 11.5 12" stroke="currentColor" stroke-width="1.4" stroke-linecap="round"/>
  </g>
  <defs>
    <clipPath id="scenario-pen-clip">
      <rect width="15" height="15" fill="white"/>
    </clipPath>
  </defs>
</svg>
